#!OML:ASF X:\für Bonn\!DataBase\2005_08_12_Daniel\c3d\Daniel.ASF
:FULLY-SPECIFIED
:DEGREES
122
root 2.19136 17.5614 18.3608 -726.236 21.6748 -1.65075
lowerback 8.52563 2.19224 5.96369
upperback -0.0352731 3.28843 -5.48332
thorax -4.16559 1.47198 -9.61242
lowerneck 0.227291 -5.82348 -0.96539
upperneck 8.36349 -8.0219 3.51669
head 2.82767 -3.91008 1.09194
rclavicle -3.4017e-014 3.18055e-015
rhumerus 40.9632 -2.04412 -38.8474
rradius 35.1762
rwrist 12.2271
rhand 4.50792 13.5507
rfingers 7.12502
rthumb 29.9005 -14.0545
lclavicle -3.4017e-014 3.18055e-015
lhumerus -46.6894 51.5838 46.2123
lradius 16.1742
lwrist -50.1711
lhand -10.2582 -5.31867
lfingers 7.12502
lthumb 15.735 24.0617
rfemur 5.46337 11.2115 22.4044
rtibia 19.199
rfoot -25.2698 -22.7275
rtoes -10.7774
lfemur -4.47791 -19.5225 -17.6649
ltibia 32.9131
lfoot -22.1843 -0.738219
ltoes -10.5023
123
root 2.18597 17.5574 18.3618 -726.262 21.9426 -1.65422
lowerback 8.52408 2.1414 5.86343
upperback -0.025711 3.21235 -5.42469
thorax -4.17906 1.43589 -9.48044
lowerneck 0.198318 -5.81872 -0.858503
upperneck 8.3965 -8.00667 3.35676
head 2.82997 -3.90305 1.02189
rclavicle -4.91247e-014 1.74931e-014
rhumerus 40.3511 -2.59424 -39.3646
rradius 36.3088
rwrist 11.8459
rhand 3.75979 13.6778
rfingers 7.12502
rthumb 29.1863 -14.0537
lclavicle -4.91247e-014 1.74931e-014
lhumerus -46.8589 51.3126 46.1107
lradius 16.2459
lwrist -50.0388
lhand -10.2736 -5.43543
lfingers 7.12502
lthumb 15.7202 23.9461
rfemur 5.28098 10.6336 22.2402
rtibia 19.5451
rfoot -25.2451 -22.1122
rtoes -10.4366
lfemur -4.57012 -19.664 -17.6356
ltibia 32.9938
lfoot -22.1668 -0.9455
ltoes -10.3654
124
root 2.17979 17.5537 18.3623 -726.315 22.2162 -1.67256
lowerback 8.56564 2.09359 5.79191
upperback -0.02821 3.14461 -5.3681
thorax -4.22582 1.40129 -9.3721
lowerneck 0.234047 -5.81809 -0.767145
upperneck 8.39463 -7.99752 3.22904
head 2.81137 -3.89975 0.967137
rclavicle -4.99943e-014 -4.45278e-014
rhumerus 39.5797 -3.13317 -39.8461
rradius 37.6411
rwrist 11.3442
rhand 2.89546 13.8297
rfingers 7.12502
rthumb 28.3607 -14.0422
lclavicle -4.99943e-014 -4.45278e-014
lhumerus -47.0628 51.0648 45.9597
lradius 16.3194
lwrist -49.949
lhand -10.2733 -5.54957
lfingers 7.12502
lthumb 15.7204 23.8319
rfemur 5.10631 10.1183 22.0943
rtibia 19.922
rfoot -25.2721 -21.4747
rtoes -10.0854
lfemur -4.64802 -19.7667 -17.5895
ltibia 33.0893
lfoot -22.1556 -1.20068
ltoes -10.2209
125
root 2.17233 17.5487 18.3622 -726.359 22.5051 -1.66438
lowerback 8.60437 2.03529 5.7031
upperback -0.0183712 3.06079 -5.32081
thorax -4.26121 1.36004 -9.26139
lowerneck 0.238182 -5.81507 -0.705771
upperneck 8.40105 -7.98454 3.09469
head 2.80243 -3.89524 0.914407
rclavicle -2.08724e-014 1.74931e-014
rhumerus 38.7622 -3.71691 -40.3601
rradius 39.1111
rwrist 10.7363
rhand 2.05477 14.0928
rfingers 7.12502
rthumb 27.557 -13.91
lclavicle -2.08724e-014 1.74931e-014
lhumerus -47.1296 50.7237 45.9823
lradius 16.4174
lwrist -49.6418
lhand -10.2572 -5.63042
lfingers 7.12502
lthumb 15.7359 23.7498
rfemur 4.92476 9.60689 21.909
rtibia 20.3183
rfoot -25.2898 -20.7703
rtoes -9.63159
lfemur -4.74561 -19.8766 -17.5712
ltibia 33.2034
lfoot -22.1552 -1.43067
ltoes -10.1834
126
root 2.16459 17.5437 18.3615 -726.401 22.8097 -1.67097
lowerback 8.6428 1.97913 5.64566
upperback -0.0228964 2.98275 -5.27507
thorax -4.30845 1.31999 -9.172
lowerneck 0.274098 -5.82866 -0.720617
upperneck 8.41973 -7.99681 3.0197
head 2.79926 -3.904 0.893512
rclavicle -6.06045e-014 1.74931e-014
rhumerus 37.857 -4.32679 -40.898
rradius 40.7094
rwrist 10.0018
rhand 1.23391 14.3928
rfingers 7.12502
rthumb 26.7717 -13.7327
lclavicle -6.06045e-014 1.74931e-014
lhumerus -47.1879 50.3585 46.0204
lradius 16.5362
lwrist -49.3219
lhand -10.2216 -5.69013
lfingers 7.12502
lthumb 15.7702 23.6874
rfemur 4.72667 9.18539 21.7405
rtibia 20.7419
rfoot -25.3522 -20.04
rtoes -9.12644
lfemur -4.86505 -20.009 -17.5316
ltibia 33.3323
lfoot -22.1452 -1.67535
ltoes -10.1023
